<?xml version="1.0" encoding="UTF-8"?>
<!DOCTYPE svg PUBLIC "-//W3C//DTD SVG 1.1//EN" "http://www.w3.org/Graphics/SVG/1.1/DTD/svg11.dtd">
<!-- Creator: CorelDRAW -->
<svg xmlns="http://www.w3.org/2000/svg" xml:space="preserve" width="6.82666in" height="6.82666in" style="shape-rendering:geometricPrecision; text-rendering:geometricPrecision; image-rendering:optimizeQuality; fill-rule:evenodd; clip-rule:evenodd"
viewBox="0 0 6.82666 6.82666"
 xmlns:xlink="http://www.w3.org/1999/xlink">
 <defs>
  <style type="text/css">
   <![CDATA[
    .fil0 {fill:#AB47BC}
    .fil1 {fill:#FFFFFE}
    .fil2 {fill:#FFFFFE;fill-rule:nonzero}
   ]]>
  </style>
 </defs>
 <g id="Layer_x0020_1">
  <metadata id="CorelCorpID_0Corel-Layer"/>
  <rect class="fil0" width="6.82666" height="6.82666" rx="0.853335" ry="0.853335"/>
  <path class="fil1" d="M3.82072 0.950083l1.81087 0c0.151406,0 0.351102,0.209386 0.351102,0.365846l0 0.77752c0,0.144591 -0.193764,0.365846 -0.330268,0.365846l-1.0429 0 -0.823421 0.453736 0.127248 -0.461449c-0.089122,-0.0134764 -0.169823,-0.0439488 -0.234016,-0.0861299 -0.101244,-0.0665236 -0.163882,-0.162461 -0.163882,-0.272004l0 -0.77752c0,-0.128854 0.194795,-0.365846 0.305268,-0.365846zm0.332157 0.414465l0.126213 0 0 0.396732c0,0.0517992 -0.00466929,0.0917795 -0.0137165,0.11965 -0.0122559,0.0364764 -0.0344331,0.0658031 -0.0666772,0.0878386 -0.032248,0.0221772 -0.0747087,0.033122 -0.127386,0.033122 -0.0618622,0 -0.109433,-0.0172165 -0.142843,-0.0519449 -0.0332717,-0.0345827 -0.0501969,-0.0853583 -0.0503425,-0.152331l0.119209 -0.0137165c0.00146457,0.0358937 0.00671654,0.0612835 0.0157598,0.0761654 0.0137165,0.0224724 0.0345827,0.0337047 0.0624528,0.0337047 0.0281575,0 0.0481496,-0.00802362 0.0598228,-0.0242165 0.0116732,-0.0160512 0.0175079,-0.0494685 0.0175079,-0.100244l0 -0.40476zm0.235213 0.317213c0,-0.0639094 0.00948031,-0.117461 0.0285984,-0.160799 0.0142953,-0.0318031 0.0337047,-0.0605512 0.0583622,-0.085937 0.0246614,-0.0252441 0.0516496,-0.044063 0.0809803,-0.0563189 0.0391063,-0.0166378 0.0840433,-0.0248071 0.135114,-0.0248071 0.0923622,0 0.166193,0.0285945 0.221642,0.0859409 0.0554449,0.0571969 0.0831693,0.136862 0.0831693,0.238858 0,0.10126 -0.0275787,0.180343 -0.0825866,0.237543 -0.0550079,0.0570512 -0.128551,0.0856496 -0.220476,0.0856496 -0.0932323,0 -0.167358,-0.0284528 -0.22237,-0.0852087 -0.0550039,-0.0569094 -0.0824331,-0.135264 -0.0824331,-0.234921zm0.130295 -0.00423228c0,0.0709134 0.0164882,0.124756 0.0491693,0.161382 0.0328346,0.036622 0.0744213,0.0548583 0.124902,0.0548583 0.0503425,0 0.0917795,-0.0180906 0.124173,-0.0545709 0.032248,-0.0363307 0.0484449,-0.0907559 0.0484449,-0.163421 0,-0.0717874 -0.0157638,-0.125339 -0.0471339,-0.160795 -0.0315157,-0.035311 -0.0733937,-0.0529646 -0.125484,-0.0529646 -0.0522323,0 -0.0942559,0.0179488 -0.126213,0.0536929 -0.031811,0.035752 -0.0478583,0.0895945 -0.0478583,0.161819zm0.576642 -0.31298l0.250535 0c0.0496063,0 0.0866693,0.00204331 0.111035,0.00627559 0.0243701,0.00408268 0.0461063,0.0126929 0.0653661,0.0258268 0.0192598,0.0131299 0.0351693,0.0304921 0.0480079,0.0523819 0.0128386,0.0217402 0.0192598,0.046252 0.0192598,0.073248 0,0.0293268 -0.00788189,0.0563228 -0.0236378,0.0808346 -0.0159055,0.0245118 -0.0373543,0.0428976 -0.0643465,0.0551535 0.0380827,0.0110906 0.0675551,0.0300591 0.0879843,0.0567638 0.0205709,0.0268465 0.0307874,0.0583622 0.0307874,0.0945433 0,0.0284567 -0.00656299,0.0561811 -0.0198425,0.0831693 -0.0132795,0.0268543 -0.031374,0.0484488 -0.0542835,0.0644961 -0.0229055,0.0160512 -0.0512126,0.0259724 -0.0849213,0.0297677 -0.0210079,0.00218504 -0.0719331,0.00364567 -0.152622,0.00423228l-0.213323 0 0 -0.626693zm0.12665 0.104327l0 0.14489 0.0828819 0c0.0493189,0 0.0799606,-0.000728346 0.0919213,-0.00218898 0.0215945,-0.00248031 0.0386693,-0.00992126 0.0510709,-0.0223228 0.0124016,-0.0124016 0.0185315,-0.0287441 0.0185315,-0.0490236 0,-0.0194094 -0.00525197,-0.0351693 -0.0159016,-0.0472795 -0.0107992,-0.0121102 -0.0267047,-0.0194055 -0.0477205,-0.0218819 -0.0125433,-0.00146457 -0.0485827,-0.00219291 -0.108118,-0.00219291l-0.0726654 0zm0 0.249217l0 0.167508 0.117024 0c0.0456693,0 0.074563,-0.00116929 0.0868189,-0.00379134 0.0188228,-0.00335827 0.0341417,-0.0118228 0.0459606,-0.0249528 0.0118228,-0.0132795 0.0178031,-0.0310827 0.0178031,-0.0532598 0,-0.0188189 -0.00466929,-0.0347283 -0.0137205,-0.0478543 -0.00919291,-0.0131339 -0.0223189,-0.0227677 -0.0395394,-0.028748 -0.0172165,-0.00598031 -0.0547165,-0.00890157 -0.112205,-0.00890157l-0.102142 0z"/>
  <path class="fil2" d="M1.58618 4.08422c-0.196094,0.110705 -0.364972,0.274988 -0.491866,0.475815 -0.157256,0.248854 -0.250343,0.554071 -0.250343,0.882031l0 0.024689c0,0.107618 0.0392953,0.207004 0.102594,0.280421 0.0688268,0.0798346 0.165626,0.129402 0.27376,0.129402l2.66909 0c0.108146,0 0.204945,-0.0495669 0.273772,-0.129402 0.0632992,-0.0734173 0.102594,-0.172803 0.102594,-0.280421l0 -0.024689c0,-0.325681 -0.0915669,-0.628677 -0.246433,-0.876189 -0.126055,-0.201453 -0.294173,-0.366543 -0.489614,-0.47828 -0.0520591,0.106185 -0.121339,0.204035 -0.210319,0.289898 -0.531693,0.513024 -1.40119,0.349303 -1.73324,-0.293276zm0.968701 0.43115l-0.000366142 0 -0.000610236 -1.5748e-005c-0.204827,-0.000259843 -0.450728,-0.0839291 -0.638531,-0.265146 -0.149984,-0.14472 -0.263413,-0.350291 -0.289839,-0.623047 -0.00194488,-0.0202165 -0.00348031,-0.0552205 -0.00462205,-0.0930709 -0.00153937,-0.0505512 -0.00246457,-0.11189 -0.00267717,-0.141406 -0.00272441,-0.35189 0.11087,-0.581469 0.290339,-0.727268 0.174673,-0.141921 0.403461,-0.194087 0.643035,-0.198803l-1.5748e-005 -0.000625984c0.0073937,-0.000133858 0.0146654,0.000200787 0.021815,0.000992126 0.23402,0.00661417 0.456831,0.0595433 0.627776,0.198437 0.179453,0.145799 0.293063,0.375378 0.290339,0.727268 -0.000212598,0.0295157 -0.0011378,0.0908543 -0.00267717,0.141406 -0.00114173,0.0378504 -0.00267717,0.0728543 -0.00462205,0.0930709 -0.0271732,0.280528 -0.131717,0.486283 -0.280787,0.630122 -0.17411,0.167996 -0.404327,0.246051 -0.640571,0.257417l1.5748e-005 0.000472441c-0.00267717,0.000122047 -0.00533858,0.000181102 -0.008,0.000181102l0 1.5748e-005z"/>
 </g>
</svg>
